<svg id="svg" version="1.1" xmlns="http://www.w3.org/2000/svg" xmlns:xlink="http://www.w3.org/1999/xlink" width="400" height="56.02910602910603" viewBox="0, 0, 400,56.02910602910603"><g id="svgg"><path id="path0" d="M85.333 27.083 L 85.333 54.167 89.667 54.167 L 94.000 54.167 94.000 37.064 L 94.000 19.961 95.595 21.605 C 96.472 22.510,98.282 24.396,99.618 25.798 C 100.954 27.199,102.617 28.929,103.315 29.643 C 104.013 30.356,105.793 32.210,107.272 33.762 C 108.751 35.314,110.401 37.037,110.939 37.591 C 111.477 38.145,113.565 40.320,115.580 42.424 C 120.104 47.148,122.122 49.248,123.417 50.575 C 123.967 51.139,125.143 52.365,126.031 53.300 C 126.919 54.235,127.762 55.000,127.906 55.000 C 128.141 55.000,128.167 52.379,128.167 27.917 L 128.167 0.833 123.917 0.833 L 119.667 0.833 119.667 17.917 C 119.667 27.313,119.607 35.000,119.534 35.000 C 119.461 35.000,118.963 34.531,118.428 33.958 C 117.893 33.385,115.985 31.380,114.186 29.503 C 112.388 27.625,110.354 25.497,109.667 24.774 C 108.979 24.051,107.929 22.957,107.333 22.342 C 105.988 20.953,101.122 15.865,98.811 13.430 C 97.861 12.429,96.558 11.074,95.917 10.420 C 95.275 9.766,94.225 8.673,93.582 7.990 C 89.188 3.322,85.881 -0.000,85.628 -0.000 C 85.347 -0.000,85.333 1.294,85.333 27.083 M243.026 1.708 C 242.756 2.281,242.368 3.125,242.164 3.583 C 241.769 4.469,240.849 6.478,240.331 7.583 C 240.160 7.950,239.856 8.625,239.656 9.083 C 239.322 9.849,238.603 11.427,237.834 13.083 C 237.663 13.450,237.288 14.275,237.000 14.917 C 236.712 15.558,236.336 16.383,236.164 16.750 C 235.993 17.117,235.690 17.792,235.492 18.250 C 235.294 18.708,234.923 19.533,234.666 20.083 C 233.741 22.070,233.187 23.281,232.417 25.000 C 231.985 25.962,231.424 27.200,231.169 27.750 C 230.914 28.300,230.480 29.238,230.203 29.833 C 229.927 30.429,229.348 31.704,228.917 32.667 C 228.486 33.629,227.841 35.040,227.483 35.802 C 227.126 36.563,226.833 37.211,226.833 37.241 C 226.833 37.271,226.455 38.110,225.993 39.106 C 225.531 40.102,225.087 41.067,225.005 41.250 C 224.498 42.389,223.765 44.012,223.499 44.583 C 222.730 46.240,222.011 47.817,221.678 48.583 C 221.478 49.042,221.174 49.717,221.002 50.083 C 220.646 50.843,219.692 52.925,219.245 53.917 C 219.079 54.283,218.915 54.640,218.879 54.708 C 218.843 54.777,220.337 54.833,222.199 54.833 L 225.585 54.833 225.815 54.292 C 226.073 53.682,226.866 51.923,227.335 50.917 C 227.659 50.223,228.347 48.674,228.779 47.667 C 228.916 47.346,229.130 46.896,229.254 46.667 L 229.479 46.250 243.893 46.207 L 258.308 46.165 258.723 47.041 C 259.497 48.677,260.333 50.529,260.333 50.609 C 260.333 50.652,260.514 51.076,260.735 51.552 C 260.955 52.028,261.297 52.792,261.494 53.250 C 262.254 55.020,261.767 54.833,265.621 54.833 C 267.490 54.833,268.990 54.777,268.955 54.708 C 268.919 54.640,268.754 54.283,268.589 53.917 C 268.142 52.925,267.187 50.843,266.831 50.083 C 266.660 49.717,266.356 49.042,266.157 48.583 C 265.958 48.125,265.585 47.300,265.328 46.750 C 264.852 45.732,264.281 44.477,263.546 42.833 C 262.866 41.315,262.486 40.479,261.878 39.167 C 261.559 38.479,261.113 37.504,260.887 37.000 C 260.660 36.496,260.212 35.521,259.891 34.833 C 259.041 33.015,258.781 32.445,257.913 30.500 C 257.158 28.808,256.647 27.689,255.667 25.583 C 255.411 25.033,255.017 24.171,254.790 23.667 C 254.335 22.655,253.875 21.638,253.130 20.000 C 252.859 19.404,252.520 18.654,252.377 18.333 C 252.234 18.012,251.910 17.300,251.657 16.750 C 251.404 16.200,250.939 15.188,250.623 14.500 C 250.308 13.813,249.860 12.838,249.628 12.333 C 248.680 10.273,248.331 9.503,247.586 7.833 C 247.157 6.871,246.506 5.446,246.141 4.667 C 244.818 1.851,244.663 1.512,244.504 1.093 C 244.190 0.268,243.587 0.519,243.026 1.708 M380.250 0.828 C 371.071 1.698,364.584 8.735,365.641 16.674 C 366.302 21.643,369.477 24.929,376.583 28.000 C 377.906 28.572,378.533 28.820,380.167 29.419 C 381.405 29.873,381.969 30.099,383.067 30.583 C 383.379 30.721,383.687 30.833,383.752 30.833 C 384.081 30.833,388.412 33.068,389.421 33.759 C 396.216 38.405,394.947 45.571,386.814 48.475 C 383.055 49.817,378.296 49.584,374.500 47.870 C 371.929 46.710,368.514 43.624,367.960 41.963 C 367.893 41.764,367.255 42.093,366.250 42.845 C 365.883 43.119,365.396 43.471,365.167 43.626 C 364.938 43.782,364.712 43.952,364.667 44.005 C 364.621 44.057,364.227 44.353,363.792 44.662 C 362.831 45.343,362.828 45.162,363.821 46.797 C 365.547 49.638,367.806 51.665,371.111 53.338 C 371.829 53.701,372.511 53.999,372.627 53.999 C 372.743 54.000,372.968 54.066,373.127 54.147 C 373.888 54.534,375.281 54.938,376.917 55.245 C 377.192 55.297,377.577 55.369,377.773 55.406 C 381.669 56.143,387.710 55.247,391.500 53.370 C 392.004 53.121,392.442 52.860,392.472 52.792 C 392.503 52.723,392.594 52.667,392.675 52.667 C 393.743 52.667,397.280 49.085,398.454 46.816 C 402.679 38.643,398.892 31.023,388.333 26.452 C 388.012 26.314,387.188 25.957,386.500 25.661 C 385.813 25.364,384.950 24.991,384.583 24.832 C 384.217 24.674,383.729 24.491,383.500 24.428 C 383.067 24.308,382.829 24.215,381.808 23.767 C 381.473 23.620,381.130 23.500,381.045 23.500 C 380.960 23.500,380.521 23.313,380.070 23.084 C 379.619 22.855,379.164 22.668,379.059 22.667 C 378.809 22.666,375.876 21.154,375.098 20.626 C 374.078 19.932,372.667 18.512,372.667 18.179 C 372.667 18.096,372.610 18.003,372.542 17.972 C 372.265 17.849,371.833 16.143,371.833 15.176 C 371.833 11.806,374.630 8.596,378.583 7.428 C 379.133 7.265,379.801 7.065,380.067 6.983 C 383.970 5.776,390.433 8.647,392.487 12.500 C 392.780 13.050,393.055 13.500,393.099 13.500 C 393.202 13.500,394.058 12.955,394.167 12.821 C 394.212 12.764,394.775 12.390,395.417 11.991 C 396.058 11.592,396.621 11.222,396.667 11.170 C 396.712 11.118,396.956 10.944,397.208 10.784 C 397.759 10.434,397.764 10.363,397.315 9.376 C 395.688 5.805,392.393 3.005,388.083 1.529 C 386.280 0.912,382.723 0.593,380.250 0.828 M0.000 5.250 L 0.000 9.500 11.937 9.500 C 21.462 9.500,23.841 9.542,23.712 9.708 C 23.623 9.823,23.209 10.554,22.793 11.333 C 22.377 12.112,21.757 13.275,21.415 13.917 C 20.739 15.183,19.847 16.841,18.995 18.417 C 18.697 18.967,18.151 19.979,17.782 20.667 C 17.412 21.354,16.900 22.292,16.643 22.750 C 16.386 23.208,15.895 24.146,15.551 24.833 C 15.207 25.521,14.881 26.121,14.828 26.167 C 14.775 26.212,14.569 26.587,14.371 27.000 C 14.172 27.412,13.699 28.313,13.319 29.000 C 12.603 30.296,11.489 32.367,10.809 33.667 C 10.593 34.079,10.379 34.454,10.333 34.500 C 10.287 34.546,9.920 35.221,9.516 36.000 C 9.112 36.779,8.453 38.017,8.052 38.750 C 7.652 39.483,7.157 40.421,6.953 40.833 C 6.750 41.246,6.546 41.621,6.500 41.667 C 6.454 41.712,6.163 42.237,5.852 42.833 C 5.294 43.904,4.768 44.888,3.626 47.000 C 2.839 48.454,2.043 49.942,1.084 51.750 C 0.647 52.575,0.224 53.321,0.145 53.408 C -0.399 54.004,-0.528 54.000,18.667 54.000 L 37.333 54.000 37.333 49.833 L 37.333 45.667 25.417 45.667 C 18.862 45.667,13.500 45.634,13.500 45.594 C 13.500 45.524,13.780 44.994,15.133 42.500 C 15.457 41.904,16.055 40.779,16.463 40.000 C 16.871 39.221,17.411 38.208,17.663 37.750 C 18.278 36.634,19.475 34.408,19.903 33.583 C 20.094 33.217,20.287 32.879,20.333 32.833 C 20.379 32.787,20.725 32.150,21.102 31.417 C 21.964 29.739,22.950 27.901,23.335 27.250 C 23.498 26.975,24.079 25.887,24.626 24.833 C 25.174 23.779,25.827 22.542,26.079 22.083 C 26.330 21.625,26.838 20.688,27.209 20.000 C 27.579 19.313,28.106 18.337,28.379 17.833 C 28.652 17.329,29.156 16.392,29.498 15.750 C 30.534 13.805,31.437 12.132,31.972 11.167 C 32.251 10.662,32.766 9.688,33.115 9.000 C 33.464 8.313,33.787 7.712,33.833 7.667 C 33.879 7.621,34.227 6.983,34.606 6.250 C 34.985 5.517,35.481 4.579,35.708 4.167 C 36.851 2.084,37.333 1.172,37.333 1.090 C 37.333 1.041,28.933 1.000,18.667 1.000 L 0.000 1.000 0.000 5.250 M135.000 4.583 L 135.000 7.667 142.750 7.667 L 150.500 7.667 150.500 31.250 L 150.500 54.833 153.583 54.833 L 156.667 54.833 156.667 31.250 L 156.667 7.667 164.417 7.667 L 172.167 7.667 172.167 4.583 L 172.167 1.500 153.583 1.500 L 135.000 1.500 135.000 4.583 M179.208 28.113 L 179.250 54.750 182.292 54.795 L 185.333 54.841 185.333 44.504 L 185.333 34.167 190.292 34.173 L 195.250 34.180 196.583 36.103 C 197.317 37.161,197.997 38.114,198.094 38.222 C 198.192 38.329,198.417 38.642,198.594 38.917 C 198.772 39.192,199.008 39.529,199.120 39.667 C 199.232 39.804,199.772 40.554,200.319 41.333 C 200.867 42.112,201.381 42.827,201.462 42.921 C 201.544 43.015,201.752 43.315,201.926 43.588 C 202.100 43.860,202.282 44.121,202.330 44.167 C 202.442 44.272,203.670 45.949,204.039 46.500 C 204.487 47.170,207.630 51.567,207.794 51.754 C 207.876 51.848,208.087 52.148,208.263 52.421 C 208.439 52.694,208.674 53.029,208.786 53.167 C 208.897 53.304,209.217 53.735,209.495 54.125 L 210.002 54.833 213.838 54.833 L 217.674 54.833 217.380 54.375 C 217.218 54.123,216.954 53.771,216.793 53.594 C 216.632 53.416,216.500 53.215,216.500 53.147 C 216.500 53.079,216.404 52.925,216.287 52.804 C 216.104 52.615,214.602 50.615,213.698 49.358 C 213.543 49.143,213.229 48.719,213.000 48.417 C 212.771 48.114,212.458 47.690,212.304 47.475 C 211.488 46.331,207.114 40.446,206.996 40.333 C 206.948 40.287,206.767 40.027,206.593 39.754 C 206.419 39.482,206.210 39.182,206.130 39.088 C 206.049 38.994,205.234 37.904,204.319 36.667 C 203.405 35.429,202.509 34.232,202.328 34.005 C 201.900 33.469,201.913 33.391,202.451 33.256 C 203.081 33.098,204.578 32.364,205.665 31.681 C 208.368 29.981,210.662 27.272,211.885 24.333 C 215.362 15.979,210.767 6.215,201.719 2.735 C 198.865 1.637,198.816 1.633,188.541 1.551 L 179.166 1.476 179.208 28.113 M275.167 28.179 L 275.167 54.859 285.125 54.788 C 291.454 54.743,295.326 54.653,295.750 54.539 C 296.117 54.441,296.867 54.272,297.417 54.164 C 303.855 52.896,309.489 49.268,312.901 44.192 C 313.230 43.701,313.500 43.239,313.500 43.164 C 313.500 43.089,313.562 43.003,313.638 42.972 C 313.758 42.924,314.965 40.531,315.348 39.583 C 315.669 38.787,316.488 36.006,316.648 35.167 C 316.745 34.662,316.919 33.837,317.036 33.333 C 317.336 32.044,317.329 24.464,317.026 23.000 C 316.321 19.585,315.866 17.983,315.134 16.333 C 314.395 14.669,314.238 14.366,313.470 13.115 C 309.373 6.444,302.698 2.552,293.833 1.665 C 293.054 1.587,288.535 1.518,283.792 1.512 L 275.167 1.500 275.167 28.179 M325.667 28.167 L 325.667 54.833 341.333 54.833 L 357.000 54.833 357.000 51.833 L 357.000 48.833 344.417 48.833 L 331.833 48.833 331.833 39.667 L 331.833 30.500 342.750 30.500 L 353.667 30.500 353.667 27.417 L 353.667 24.333 342.750 24.333 L 331.833 24.333 331.833 16.000 L 331.833 7.667 344.417 7.667 L 357.000 7.667 357.000 4.583 L 357.000 1.500 341.333 1.500 L 325.667 1.500 325.667 28.167 M197.667 7.911 C 199.356 8.340,199.796 8.504,200.898 9.116 C 206.203 12.065,208.145 18.148,205.375 23.138 C 204.519 24.681,202.533 26.662,201.292 27.212 C 201.040 27.323,200.833 27.471,200.833 27.541 C 200.833 27.610,200.751 27.667,200.650 27.667 C 200.549 27.667,200.231 27.772,199.942 27.900 C 197.820 28.844,196.149 29.015,190.292 28.887 L 185.333 28.780 185.333 18.223 L 185.333 7.667 191.042 7.673 C 195.360 7.677,196.973 7.735,197.667 7.911 M293.594 7.834 C 297.262 8.455,302.121 10.192,302.830 11.137 C 302.878 11.200,303.353 11.576,303.886 11.973 C 304.939 12.756,306.122 13.913,306.811 14.833 C 307.051 15.154,307.289 15.454,307.340 15.500 C 307.476 15.624,308.833 17.812,308.833 17.908 C 308.833 17.954,309.029 18.424,309.267 18.954 C 309.506 19.483,309.766 20.067,309.845 20.250 C 311.005 22.943,311.460 30.190,310.658 33.210 C 310.177 35.023,309.960 35.788,309.795 36.250 C 309.572 36.874,308.302 39.554,308.176 39.667 C 308.124 39.712,307.790 40.197,307.433 40.743 C 305.715 43.371,302.469 45.830,299.000 47.130 C 295.540 48.428,293.593 48.666,286.458 48.667 L 281.500 48.667 281.500 28.167 L 281.500 7.667 287.053 7.667 C 290.107 7.667,293.050 7.742,293.594 7.834 M244.569 15.167 C 245.120 16.465,245.308 16.892,246.000 18.417 C 246.291 19.058,246.629 19.808,246.751 20.083 C 246.873 20.358,247.204 21.095,247.487 21.720 C 247.769 22.345,248.000 22.887,248.000 22.925 C 248.000 22.962,248.267 23.576,248.593 24.288 C 248.920 25.000,249.287 25.808,249.410 26.083 C 249.533 26.358,249.787 26.921,249.974 27.333 C 250.161 27.746,250.479 28.458,250.679 28.917 C 250.880 29.375,251.249 30.200,251.499 30.750 C 251.750 31.300,252.197 32.313,252.494 33.000 C 252.988 34.146,253.333 34.916,254.175 36.750 C 254.343 37.117,254.628 37.754,254.808 38.167 C 254.988 38.579,255.326 39.348,255.559 39.875 L 255.982 40.833 243.902 40.833 C 232.450 40.833,231.830 40.818,231.974 40.542 C 232.219 40.073,232.833 38.692,232.833 38.609 C 232.833 38.567,233.142 37.869,233.519 37.058 C 234.741 34.432,235.000 33.856,235.000 33.767 C 235.000 33.719,235.252 33.133,235.561 32.465 C 236.120 31.251,236.250 30.964,237.079 29.083 C 237.321 28.533,237.661 27.783,237.834 27.417 C 238.006 27.050,238.312 26.375,238.512 25.917 C 238.712 25.458,239.129 24.534,239.438 23.863 C 239.747 23.192,240.000 22.606,240.000 22.561 C 240.000 22.516,240.195 22.053,240.433 21.531 C 242.277 17.496,243.018 15.853,243.590 14.541 C 243.946 13.721,243.958 13.729,244.569 15.167 M45.333 38.333 L 45.333 54.000 61.167 54.000 L 77.000 54.000 77.000 49.750 L 77.000 45.500 65.417 45.500 L 53.833 45.500 53.833 38.333 L 53.833 31.167 63.833 31.167 L 73.833 31.167 73.833 26.917 L 73.833 22.667 59.583 22.667 L 45.333 22.667 45.333 38.333 " stroke="none" fill="#fcfcfc" fill-rule="evenodd"></path><path id="path1" d="M45.333 5.167 L 45.333 9.333 61.167 9.333 L 77.000 9.333 77.000 5.167 L 77.000 1.000 61.167 1.000 L 45.333 1.000 45.333 5.167 " stroke="none" fill="#ec5464" fill-rule="evenodd"></path><path id="path2" d="" stroke="none" fill="#f4d0100" fill-rule="evenodd"></path><path id="path3" d="" stroke="none" fill="#f4d0100" fill-rule="evenodd"></path><path id="path4" d="" stroke="none" fill="#f4d0100" fill-rule="evenodd"></path></g></svg>